<?xml version="1.0" encoding="utf-8"?>
<!-- Generator: Adobe Illustrator 15.0.0, SVG Export Plug-In . SVG Version: 6.00 Build 0)  -->
<!DOCTYPE svg PUBLIC "-//W3C//DTD SVG 1.1//EN" "http://www.w3.org/Graphics/SVG/1.1/DTD/svg11.dtd">
<svg version="1.1" xmlns="http://www.w3.org/2000/svg" xmlns:xlink="http://www.w3.org/1999/xlink" x="0px" y="0px" width="741px"
	 height="256px" viewBox="0 0 741 256" enable-background="new 0 0 741 256" xml:space="preserve">
<g id="Guias">
</g>
<g id="filtro" display="none">
	<g display="inline">
		<g>
			<path fill="#231F20" d="M-205.976-184.441v626.902H953.589v-626.902H-205.976z M741.189,255.935H0.058V0.231h741.131V255.935z"/>
		</g>
		<g>
			<path fill="none" stroke="#231F20" stroke-miterlimit="10" d="M-205.976-184.441v626.902H953.589v-626.902H-205.976z
				 M741.189,255.935H0.058V0.231h741.131V255.935z"/>
		</g>
	</g>
</g>
<g id="logotipo_1_">
	<g id="bitson_4_">
		<rect id="fondo_3_" display="none" fill="#262626" width="741" height="256"/>
		<rect id="fondo_4_" display="none" fill="#FFFFFF" width="741" height="256"/>
		<path id="n" fill="#236AB7" d="M597.172,118.184v93.577c-6.947,2.332-13.612,1.89-20.637,0.354V108.097
			c5.889-5.7,13.371-9.085,20.984-12.14c9.503-3.803,19.51-5.741,29.711-6.246c10.825-0.555,21.387,0.998,31.259,5.748
			c16.213,7.786,24.74,21.253,25.317,38.703c0.829,24.994,0.233,50.038,0.233,75.053c0,0.703-0.161,1.392-0.313,2.693
			c-6.856,2.088-13.685,1.836-21.219-0.056v-6.637c0-19.646,0.115-39.3-0.076-58.954c-0.057-5.498-0.41-11.136-1.675-16.438
			c-2.578-10.783-9.941-17.243-20.682-19.277c-13.908-2.637-27.329-0.494-40.12,5.56c-0.481,0.217-0.937,0.515-1.383,0.813
			C598.28,117.12,598.035,117.385,597.172,118.184"/>
		<path id="o" fill="#236AB7" d="M538.327,148.883c0.099,0.914,0.054,0.561,0.023,0.209c-0.168-2.312-0.168-4.646-0.513-6.943
			c-2.287-14.918-9.242-26.509-23.842-32.251c-7.602-2.981-15.474-3.54-23.607-1.977c-12.045,2.312-20.974,8.59-26.43,19.566
			c-7.177,14.47-6.963,29.276-1.039,43.974c3.758,9.346,10.701,15.807,20.203,19.483c6.138,2.37,12.481,2.932,18.925,2.511
			c12.063-0.787,21.894-5.736,28.85-15.894C536.569,169.279,538.277,159.935,538.327,148.883 M560.199,150.313
			c-0.23,16.649-5.465,31.327-16.676,43.606c-8.137,8.917-18.204,14.928-30.066,17.562c-19.492,4.313-37.617,1.596-53.616-11.089
			c-11.231-8.912-17.856-20.659-20.981-34.531c-3.468-15.341-2.095-30.228,4.926-44.312c9.41-18.908,24.794-29.95,45.662-33.328
			c17.705-2.86,33.734,1.06,47.802,12.163c11.715,9.25,18.369,21.698,21.344,36.144
			C559.514,141.037,559.688,145.704,560.199,150.313"/>
		<path id="s" fill="#236AB7" d="M421.828,98.738c-1.511,7.123-4.345,12.283-8.458,15.629c-8.016-2.564-15.169-5.348-22.579-7.093
			c-7.832-1.843-15.942-1.462-23.924-0.287c-2.408,0.346-4.748,1.491-6.993,2.551c-5.311,2.529-7.129,6.957-7.027,12.7
			c0.093,5.598,2.868,9.455,7.681,11.142c6.339,2.204,12.984,3.83,19.617,4.908c8.677,1.422,17.215,3.155,25.218,6.81
			c9.928,4.526,17.47,11.554,19.161,22.76c2.222,14.708-2.198,27.177-14.529,36.232c-6.964,5.103-15.014,7.626-23.38,8.567
			c-13.554,1.536-27.05,0.841-40.04-4c-6.372-2.373-12.417-5.337-17.446-10.516c2.56-6.15,5.681-11.555,11.022-14.188
			c6.473,3.013,12.037,6.355,18.056,8.26c10.198,3.243,20.815,3.144,31.201,0.683c3.499-0.832,7.131-2.641,9.843-5.001
			c7.911-6.854,6.558-18.231-2.521-23.409c-5.683-3.214-12.03-4.347-18.407-5.246c-9.016-1.264-17.896-2.768-26.448-6.22
			c-24.918-10.031-25.601-41.271-7.662-55.038c7.181-5.502,15.242-8.462,23.968-9.856c13.858-2.215,27.425-0.762,40.51,4.176
			C413.137,93.983,417.273,96.475,421.828,98.738"/>
		<path id="t" fill="#236AB7" d="M308.991,186.099c5.55,3.701,7.64,6.845,9.52,14.27c-0.431,0.533-0.862,1.354-1.535,1.849
			c-9.067,6.839-19.069,11.044-30.612,11.164c-7.943,0.087-15.632-0.68-22.968-4.083c-11.244-5.182-17.056-14.323-19.012-26.093
			c-0.841-5.07-0.979-10.31-1.021-15.468c-0.121-17.322-0.047-34.664-0.047-51.983v-6.424h-19.513
			c-2.26-5.802-1.931-10.989-0.328-16.631c6.146-1.867,12.666,0.038,19.479-1.264c0.957-10.01-0.142-20.149,0.588-29.983
			c5.228-2.608,14.78-2.756,20.563-0.216v30.667h46.47c2.435,5.958,2.062,11.291,0.264,17.197H264.59
			c-0.205,1.844-0.473,3.217-0.479,4.558c-0.027,18.048-0.164,36.099,0.082,54.144c0.063,4.941,0.904,9.951,2.09,14.76
			c1.446,5.8,5.521,9.467,11.324,11.037c9.952,2.697,19.059,0.466,27.598-4.878C306.401,187.972,307.547,187.12,308.991,186.099"/>
		<g id="i">
			<path fill="#236AB7" d="M186.686,93.326c7-1.966,13.321-2.052,19.647-0.188c1.255,3.796,1.806,106.642,0.578,118.747
				c-6.542,2.25-13.21,1.665-20.225,0.245V93.326z"/>
			<path fill="#236AB7" d="M196.946,44.27c8.253,0.025,14.534,6.31,14.545,14.551c0.02,7.758-6.987,14.879-14.597,14.808
				c-7.597-0.053-15.263-7.257-14.841-15.132C182.486,50.307,188.564,44.252,196.946,44.27"/>
		</g>
		<path id="b" fill="#236AB7" d="M77.563,187.916c14.155,5.935,28.396,7.411,43.02,3.322c11.233-3.132,18.776-10.419,23.125-21.253
			c3.499-8.749,3.499-17.783,2.97-26.907c-0.988-17.025-12.903-31.023-29.644-34.064c-6.075-1.099-12.48-1.382-18.619-0.826
			c-7.429,0.655-14.696,2.699-20.851,7.645V187.916z M56.751,201.521V45.234c5.21-2.826,15.002-2.984,20.631-0.255v49.52
			c1.643-0.522,2.792-0.716,3.812-1.216c8.86-4.268,18.285-6.153,28.017-5.962c11.777,0.231,22.926,3.148,33.008,9.521
			c13.601,8.601,21.681,21.089,24.919,36.604c3.048,14.635,2.044,29.158-3.677,43.101c-7.951,19.362-22.613,31.162-42.866,35.067
			c-21.449,4.146-42.277,0.95-61.938-8.84C58.026,202.461,57.483,201.998,56.751,201.521"/>
	</g>
</g>
<g id="logotipo_grises" display="none">
	<g id="bitson_3_" display="inline">
		<path id="n_1_" fill="#6D6E70" d="M597.172,118.184v93.577c-6.947,2.332-13.612,1.89-20.637,0.354V108.097
			c5.889-5.7,13.371-9.085,20.984-12.14c9.503-3.803,19.51-5.741,29.711-6.246c10.825-0.555,21.387,0.998,31.259,5.748
			c16.213,7.786,24.74,21.253,25.317,38.703c0.829,24.994,0.233,50.038,0.233,75.053c0,0.703-0.161,1.392-0.313,2.693
			c-6.856,2.088-13.685,1.836-21.219-0.056v-6.637c0-19.646,0.115-39.3-0.076-58.954c-0.057-5.498-0.41-11.136-1.675-16.438
			c-2.578-10.783-9.941-17.243-20.682-19.277c-13.908-2.637-27.329-0.494-40.12,5.56c-0.481,0.217-0.937,0.515-1.383,0.813
			C598.28,117.12,598.035,117.385,597.172,118.184"/>
		<path id="o_1_" fill="#6D6E70" d="M538.327,148.883c0.099,0.914,0.054,0.561,0.023,0.209c-0.168-2.312-0.168-4.646-0.513-6.943
			c-2.287-14.918-9.242-26.509-23.842-32.251c-7.602-2.981-15.474-3.54-23.607-1.977c-12.045,2.312-20.974,8.59-26.43,19.566
			c-7.177,14.47-6.963,29.276-1.039,43.974c3.758,9.346,10.701,15.807,20.203,19.483c6.138,2.37,12.481,2.932,18.925,2.511
			c12.063-0.787,21.894-5.736,28.85-15.894C536.569,169.279,538.277,159.935,538.327,148.883 M560.199,150.313
			c-0.23,16.649-5.465,31.327-16.676,43.606c-8.137,8.917-18.204,14.928-30.066,17.562c-19.492,4.313-37.617,1.596-53.616-11.089
			c-11.231-8.912-17.856-20.659-20.981-34.531c-3.468-15.341-2.095-30.228,4.926-44.312c9.41-18.908,24.794-29.95,45.662-33.328
			c17.705-2.86,33.734,1.06,47.802,12.163c11.715,9.25,18.369,21.698,21.344,36.144
			C559.514,141.037,559.688,145.704,560.199,150.313"/>
		<path id="s_1_" fill="#6D6E70" d="M421.828,98.738c-1.511,7.123-4.345,12.283-8.458,15.629
			c-8.016-2.564-15.169-5.348-22.579-7.093c-7.832-1.843-15.942-1.462-23.924-0.287c-2.408,0.346-4.748,1.491-6.993,2.551
			c-5.311,2.529-7.129,6.957-7.027,12.7c0.093,5.598,2.868,9.455,7.681,11.142c6.339,2.204,12.984,3.83,19.617,4.908
			c8.677,1.422,17.215,3.155,25.218,6.81c9.928,4.526,17.47,11.554,19.161,22.76c2.222,14.708-2.198,27.177-14.529,36.232
			c-6.964,5.103-15.014,7.626-23.38,8.567c-13.554,1.536-27.05,0.841-40.04-4c-6.372-2.373-12.417-5.337-17.446-10.516
			c2.56-6.15,5.681-11.555,11.022-14.188c6.473,3.013,12.037,6.355,18.056,8.26c10.198,3.243,20.815,3.144,31.201,0.683
			c3.499-0.832,7.131-2.641,9.843-5.001c7.911-6.854,6.558-18.231-2.521-23.409c-5.683-3.214-12.03-4.347-18.407-5.246
			c-9.016-1.264-17.896-2.768-26.448-6.22c-24.918-10.031-25.601-41.271-7.662-55.038c7.181-5.502,15.242-8.462,23.968-9.856
			c13.858-2.215,27.425-0.762,40.51,4.176C413.137,93.983,417.273,96.475,421.828,98.738"/>
		<path id="t_1_" fill="#6D6E70" d="M308.991,186.099c5.55,3.701,7.64,6.845,9.52,14.27c-0.431,0.533-0.862,1.354-1.535,1.849
			c-9.067,6.839-19.069,11.044-30.612,11.164c-7.943,0.087-15.632-0.68-22.968-4.083c-11.244-5.182-17.056-14.323-19.012-26.093
			c-0.841-5.07-0.979-10.31-1.021-15.468c-0.121-17.322-0.047-34.664-0.047-51.983v-6.424h-19.513
			c-2.26-5.802-1.931-10.989-0.328-16.631c6.146-1.867,12.666,0.038,19.479-1.264c0.957-10.01-0.142-20.149,0.588-29.983
			c5.228-2.608,14.78-2.756,20.563-0.216v30.667h46.47c2.435,5.958,2.062,11.291,0.264,17.197H264.59
			c-0.205,1.844-0.473,3.217-0.479,4.558c-0.027,18.048-0.164,36.099,0.082,54.144c0.063,4.941,0.904,9.951,2.09,14.76
			c1.446,5.8,5.521,9.467,11.324,11.037c9.952,2.697,19.059,0.466,27.598-4.878C306.401,187.972,307.547,187.12,308.991,186.099"/>
		<g id="i_1_">
			<path fill="#6D6E70" d="M186.686,93.326c7-1.966,13.321-2.052,19.647-0.188c1.255,3.796,1.806,106.642,0.578,118.747
				c-6.542,2.25-13.21,1.665-20.225,0.245V93.326z"/>
			<path fill="#6D6E70" d="M196.946,44.27c8.253,0.025,14.534,6.31,14.545,14.551c0.02,7.758-6.987,14.879-14.597,14.808
				c-7.597-0.053-15.263-7.257-14.841-15.132C182.486,50.307,188.564,44.252,196.946,44.27"/>
		</g>
		<path id="b_1_" fill="#6D6E70" d="M77.563,187.916c14.155,5.935,28.396,7.411,43.02,3.322
			c11.233-3.132,18.776-10.419,23.125-21.253c3.499-8.749,3.499-17.783,2.97-26.907c-0.988-17.025-12.903-31.023-29.644-34.064
			c-6.075-1.099-12.48-1.382-18.619-0.826c-7.429,0.655-14.696,2.699-20.851,7.645V187.916z M56.751,201.521V45.234
			c5.21-2.826,15.002-2.984,20.631-0.255v49.52c1.643-0.522,2.792-0.716,3.812-1.216c8.86-4.268,18.285-6.153,28.017-5.962
			c11.777,0.231,22.926,3.148,33.008,9.521c13.601,8.601,21.681,21.089,24.919,36.604c3.048,14.635,2.044,29.158-3.677,43.101
			c-7.951,19.362-22.613,31.162-42.866,35.067c-21.449,4.146-42.277,0.95-61.938-8.84C58.026,202.461,57.483,201.998,56.751,201.521
			"/>
	</g>
</g>
<g id="logotipo_pluma" display="none">
	<g id="bitson_2_" display="inline">
		<path id="n_2_" fill="#231F20" d="M597.172,118.184v93.577c-6.947,2.332-13.612,1.89-20.637,0.354V108.097
			c5.889-5.7,13.371-9.085,20.984-12.14c9.503-3.803,19.51-5.741,29.711-6.246c10.825-0.555,21.387,0.998,31.259,5.748
			c16.213,7.786,24.74,21.253,25.317,38.703c0.829,24.994,0.233,50.038,0.233,75.053c0,0.703-0.161,1.392-0.313,2.693
			c-6.856,2.088-13.685,1.836-21.219-0.056v-6.637c0-19.646,0.115-39.3-0.076-58.954c-0.057-5.498-0.41-11.136-1.675-16.438
			c-2.578-10.783-9.941-17.243-20.682-19.277c-13.908-2.637-27.329-0.494-40.12,5.56c-0.481,0.217-0.937,0.515-1.383,0.813
			C598.28,117.12,598.035,117.385,597.172,118.184"/>
		<path id="o_2_" fill="#231F20" d="M538.327,148.883c0.099,0.914,0.054,0.561,0.023,0.209c-0.168-2.312-0.168-4.646-0.513-6.943
			c-2.287-14.918-9.242-26.509-23.842-32.251c-7.602-2.981-15.474-3.54-23.607-1.977c-12.045,2.312-20.974,8.59-26.43,19.566
			c-7.177,14.47-6.963,29.276-1.039,43.974c3.758,9.346,10.701,15.807,20.203,19.483c6.138,2.37,12.481,2.932,18.925,2.511
			c12.063-0.787,21.894-5.736,28.85-15.894C536.569,169.279,538.277,159.935,538.327,148.883 M560.199,150.313
			c-0.23,16.649-5.465,31.327-16.676,43.606c-8.137,8.917-18.204,14.928-30.066,17.562c-19.492,4.313-37.617,1.596-53.616-11.089
			c-11.231-8.912-17.856-20.659-20.981-34.531c-3.468-15.341-2.095-30.228,4.926-44.312c9.41-18.908,24.794-29.95,45.662-33.328
			c17.705-2.86,33.734,1.06,47.802,12.163c11.715,9.25,18.369,21.698,21.344,36.144
			C559.514,141.037,559.688,145.704,560.199,150.313"/>
		<path id="s_2_" fill="#231F20" d="M421.828,98.738c-1.511,7.123-4.345,12.283-8.458,15.629
			c-8.016-2.564-15.169-5.348-22.579-7.093c-7.832-1.843-15.942-1.462-23.924-0.287c-2.408,0.346-4.748,1.491-6.993,2.551
			c-5.311,2.529-7.129,6.957-7.027,12.7c0.093,5.598,2.868,9.455,7.681,11.142c6.339,2.204,12.984,3.83,19.617,4.908
			c8.677,1.422,17.215,3.155,25.218,6.81c9.928,4.526,17.47,11.554,19.161,22.76c2.222,14.708-2.198,27.177-14.529,36.232
			c-6.964,5.103-15.014,7.626-23.38,8.567c-13.554,1.536-27.05,0.841-40.04-4c-6.372-2.373-12.417-5.337-17.446-10.516
			c2.56-6.15,5.681-11.555,11.022-14.188c6.473,3.013,12.037,6.355,18.056,8.26c10.198,3.243,20.815,3.144,31.201,0.683
			c3.499-0.832,7.131-2.641,9.843-5.001c7.911-6.854,6.558-18.231-2.521-23.409c-5.683-3.214-12.03-4.347-18.407-5.246
			c-9.016-1.264-17.896-2.768-26.448-6.22c-24.918-10.031-25.601-41.271-7.662-55.038c7.181-5.502,15.242-8.462,23.968-9.856
			c13.858-2.215,27.425-0.762,40.51,4.176C413.137,93.983,417.273,96.475,421.828,98.738"/>
		<path id="t_2_" fill="#231F20" d="M308.991,186.099c5.55,3.701,7.64,6.845,9.52,14.27c-0.431,0.533-0.862,1.354-1.535,1.849
			c-9.067,6.839-19.069,11.044-30.612,11.164c-7.943,0.087-15.632-0.68-22.968-4.083c-11.244-5.182-17.056-14.323-19.012-26.093
			c-0.841-5.07-0.979-10.31-1.021-15.468c-0.121-17.322-0.047-34.664-0.047-51.983v-6.424h-19.513
			c-2.26-5.802-1.931-10.989-0.328-16.631c6.146-1.867,12.666,0.038,19.479-1.264c0.957-10.01-0.142-20.149,0.588-29.983
			c5.228-2.608,14.78-2.756,20.563-0.216v30.667h46.47c2.435,5.958,2.062,11.291,0.264,17.197H264.59
			c-0.205,1.844-0.473,3.217-0.479,4.558c-0.027,18.048-0.164,36.099,0.082,54.144c0.063,4.941,0.904,9.951,2.09,14.76
			c1.446,5.8,5.521,9.467,11.324,11.037c9.952,2.697,19.059,0.466,27.598-4.878C306.401,187.972,307.547,187.12,308.991,186.099"/>
		<g id="i_2_">
			<path fill="#231F20" d="M186.686,93.326c7-1.966,13.321-2.052,19.647-0.188c1.255,3.796,1.806,106.642,0.578,118.747
				c-6.542,2.25-13.21,1.665-20.225,0.245V93.326z"/>
			<path fill="#231F20" d="M196.946,44.27c8.253,0.025,14.534,6.31,14.545,14.551c0.02,7.758-6.987,14.879-14.597,14.808
				c-7.597-0.053-15.263-7.257-14.841-15.132C182.486,50.307,188.564,44.252,196.946,44.27"/>
		</g>
		<path id="b_2_" fill="#231F20" d="M77.563,187.916c14.155,5.935,28.396,7.411,43.02,3.322
			c11.233-3.132,18.776-10.419,23.125-21.253c3.499-8.749,3.499-17.783,2.97-26.907c-0.988-17.025-12.903-31.023-29.644-34.064
			c-6.075-1.099-12.48-1.382-18.619-0.826c-7.429,0.655-14.696,2.699-20.851,7.645V187.916z M56.751,201.521V45.234
			c5.21-2.826,15.002-2.984,20.631-0.255v49.52c1.643-0.522,2.792-0.716,3.812-1.216c8.86-4.268,18.285-6.153,28.017-5.962
			c11.777,0.231,22.926,3.148,33.008,9.521c13.601,8.601,21.681,21.089,24.919,36.604c3.048,14.635,2.044,29.158-3.677,43.101
			c-7.951,19.362-22.613,31.162-42.866,35.067c-21.449,4.146-42.277,0.95-61.938-8.84C58.026,202.461,57.483,201.998,56.751,201.521
			"/>
	</g>
</g>
<g id="logotipo_inverted" display="none">
	<rect id="fondo_1_" x="0.058" y="0.231" display="inline" fill="#231F20" width="740.883" height="255.537"/>
	<g id="bitson_1_" display="inline">
		<path id="n_3_" fill="#FFFFFF" d="M597.172,118.184v93.577c-6.947,2.332-13.612,1.89-20.637,0.354V108.097
			c5.889-5.7,13.371-9.085,20.984-12.14c9.503-3.803,19.51-5.741,29.711-6.246c10.825-0.555,21.387,0.998,31.259,5.748
			c16.213,7.786,24.74,21.253,25.317,38.703c0.829,24.994,0.233,50.038,0.233,75.053c0,0.703-0.161,1.392-0.313,2.693
			c-6.856,2.088-13.685,1.836-21.219-0.056v-6.637c0-19.646,0.115-39.3-0.076-58.954c-0.057-5.498-0.41-11.136-1.675-16.438
			c-2.578-10.783-9.941-17.243-20.682-19.277c-13.908-2.637-27.329-0.494-40.12,5.56c-0.481,0.217-0.937,0.515-1.383,0.813
			C598.28,117.12,598.035,117.385,597.172,118.184"/>
		<path id="o_3_" fill="#FFFFFF" d="M538.327,148.883c0.099,0.914,0.054,0.561,0.023,0.209c-0.168-2.312-0.168-4.646-0.513-6.943
			c-2.287-14.918-9.242-26.509-23.842-32.251c-7.602-2.981-15.474-3.54-23.607-1.977c-12.045,2.312-20.974,8.59-26.43,19.566
			c-7.177,14.47-6.963,29.276-1.039,43.974c3.758,9.346,10.701,15.807,20.203,19.483c6.138,2.37,12.481,2.932,18.925,2.511
			c12.063-0.787,21.894-5.736,28.85-15.894C536.569,169.279,538.277,159.935,538.327,148.883 M560.199,150.313
			c-0.23,16.649-5.465,31.327-16.676,43.606c-8.137,8.917-18.204,14.928-30.066,17.562c-19.492,4.313-37.617,1.596-53.616-11.089
			c-11.231-8.912-17.856-20.659-20.981-34.531c-3.468-15.341-2.095-30.228,4.926-44.312c9.41-18.908,24.794-29.95,45.662-33.328
			c17.705-2.86,33.734,1.06,47.802,12.163c11.715,9.25,18.369,21.698,21.344,36.144
			C559.514,141.037,559.688,145.704,560.199,150.313"/>
		<path id="s_3_" fill="#FFFFFF" d="M421.828,98.738c-1.511,7.123-4.345,12.283-8.458,15.629
			c-8.016-2.564-15.169-5.348-22.579-7.093c-7.832-1.843-15.942-1.462-23.924-0.287c-2.408,0.346-4.748,1.491-6.993,2.551
			c-5.311,2.529-7.129,6.957-7.027,12.7c0.093,5.598,2.868,9.455,7.681,11.142c6.339,2.204,12.984,3.83,19.617,4.908
			c8.677,1.422,17.215,3.155,25.218,6.81c9.928,4.526,17.47,11.554,19.161,22.76c2.222,14.708-2.198,27.177-14.529,36.232
			c-6.964,5.103-15.014,7.626-23.38,8.567c-13.554,1.536-27.05,0.841-40.04-4c-6.372-2.373-12.417-5.337-17.446-10.516
			c2.56-6.15,5.681-11.555,11.022-14.188c6.473,3.013,12.037,6.355,18.056,8.26c10.198,3.243,20.815,3.144,31.201,0.683
			c3.499-0.832,7.131-2.641,9.843-5.001c7.911-6.854,6.558-18.231-2.521-23.409c-5.683-3.214-12.03-4.347-18.407-5.246
			c-9.016-1.264-17.896-2.768-26.448-6.22c-24.918-10.031-25.601-41.271-7.662-55.038c7.181-5.502,15.242-8.462,23.968-9.856
			c13.858-2.215,27.425-0.762,40.51,4.176C413.137,93.983,417.273,96.475,421.828,98.738"/>
		<path id="t_3_" fill="#FFFFFF" d="M308.991,186.099c5.55,3.701,7.64,6.845,9.52,14.27c-0.431,0.533-0.862,1.354-1.535,1.849
			c-9.067,6.839-19.069,11.044-30.612,11.164c-7.943,0.087-15.632-0.68-22.968-4.083c-11.244-5.182-17.056-14.323-19.012-26.093
			c-0.841-5.07-0.979-10.31-1.021-15.468c-0.121-17.322-0.047-34.664-0.047-51.983v-6.424h-19.513
			c-2.26-5.802-1.931-10.989-0.328-16.631c6.146-1.867,12.666,0.038,19.479-1.264c0.957-10.01-0.142-20.149,0.588-29.983
			c5.228-2.608,14.78-2.756,20.563-0.216v30.667h46.47c2.435,5.958,2.062,11.291,0.264,17.197H264.59
			c-0.205,1.844-0.473,3.217-0.479,4.558c-0.027,18.048-0.164,36.099,0.082,54.144c0.063,4.941,0.904,9.951,2.09,14.76
			c1.446,5.8,5.521,9.467,11.324,11.037c9.952,2.697,19.059,0.466,27.598-4.878C306.401,187.972,307.547,187.12,308.991,186.099"/>
		<g id="i_3_">
			<path fill="#FFFFFF" d="M186.686,93.326c7-1.966,13.321-2.052,19.647-0.188c1.255,3.796,1.806,106.642,0.578,118.747
				c-6.542,2.25-13.21,1.665-20.225,0.245V93.326z"/>
			<path fill="#FFFFFF" d="M196.946,44.27c8.253,0.025,14.534,6.31,14.545,14.551c0.02,7.758-6.987,14.879-14.597,14.808
				c-7.597-0.053-15.263-7.257-14.841-15.132C182.486,50.307,188.564,44.252,196.946,44.27"/>
		</g>
		<path id="b_3_" fill="#FFFFFF" d="M77.563,187.916c14.155,5.935,28.396,7.411,43.02,3.322
			c11.233-3.132,18.776-10.419,23.125-21.253c3.499-8.749,3.499-17.783,2.97-26.907c-0.988-17.025-12.903-31.023-29.644-34.064
			c-6.075-1.099-12.48-1.382-18.619-0.826c-7.429,0.655-14.696,2.699-20.851,7.645V187.916z M56.751,201.521V45.234
			c5.21-2.826,15.002-2.984,20.631-0.255v49.52c1.643-0.522,2.792-0.716,3.812-1.216c8.86-4.268,18.285-6.153,28.017-5.962
			c11.777,0.231,22.926,3.148,33.008,9.521c13.601,8.601,21.681,21.089,24.919,36.604c3.048,14.635,2.044,29.158-3.677,43.101
			c-7.951,19.362-22.613,31.162-42.866,35.067c-21.449,4.146-42.277,0.95-61.938-8.84C58.026,202.461,57.483,201.998,56.751,201.521
			"/>
	</g>
</g>
<g id="logotipo_filete" display="none">
	<rect id="fondo" x="0.188" y="0.231" display="inline" fill="#00A551" width="740.754" height="255.02"/>
	<g id="bitson" display="inline">
		<path id="n_4_" fill="#236AB7" stroke="#DFDFDF" stroke-width="0.5" stroke-miterlimit="10" d="M597.172,118.184v93.577
			c-6.947,2.332-13.612,1.89-20.637,0.354V108.097c5.889-5.7,13.371-9.085,20.984-12.14c9.503-3.803,19.51-5.741,29.711-6.246
			c10.825-0.555,21.387,0.998,31.259,5.748c16.213,7.786,24.74,21.253,25.317,38.703c0.829,24.994,0.233,50.038,0.233,75.053
			c0,0.703-0.161,1.392-0.313,2.693c-6.856,2.088-13.685,1.836-21.219-0.056v-6.637c0-19.646,0.115-39.3-0.076-58.954
			c-0.057-5.498-0.41-11.136-1.675-16.438c-2.578-10.783-9.941-17.243-20.682-19.277c-13.908-2.637-27.329-0.494-40.12,5.56
			c-0.481,0.217-0.937,0.515-1.383,0.813C598.28,117.12,598.035,117.385,597.172,118.184"/>
		<path id="o_4_" fill="#236AB7" stroke="#DFDFDF" stroke-width="0.5" stroke-miterlimit="10" d="M538.327,148.883
			c0.099,0.914,0.054,0.561,0.023,0.209c-0.168-2.312-0.168-4.646-0.513-6.943c-2.287-14.918-9.242-26.509-23.842-32.251
			c-7.602-2.981-15.474-3.54-23.607-1.977c-12.045,2.312-20.974,8.59-26.43,19.566c-7.177,14.47-6.963,29.276-1.039,43.974
			c3.758,9.346,10.701,15.807,20.203,19.483c6.138,2.37,12.481,2.932,18.925,2.511c12.063-0.787,21.894-5.736,28.85-15.894
			C536.569,169.279,538.277,159.935,538.327,148.883 M560.199,150.313c-0.23,16.649-5.465,31.327-16.676,43.606
			c-8.137,8.917-18.204,14.928-30.066,17.562c-19.492,4.313-37.617,1.596-53.616-11.089c-11.231-8.912-17.856-20.659-20.981-34.531
			c-3.468-15.341-2.095-30.228,4.926-44.312c9.41-18.908,24.794-29.95,45.662-33.328c17.705-2.86,33.734,1.06,47.802,12.163
			c11.715,9.25,18.369,21.698,21.344,36.144C559.514,141.037,559.688,145.704,560.199,150.313"/>
		<path id="s_4_" fill="#236AB7" stroke="#DFDFDF" stroke-width="0.5" stroke-miterlimit="10" d="M421.828,98.738
			c-1.511,7.123-4.345,12.283-8.458,15.629c-8.016-2.564-15.169-5.348-22.579-7.093c-7.832-1.843-15.942-1.462-23.924-0.287
			c-2.408,0.346-4.748,1.491-6.993,2.551c-5.311,2.529-7.129,6.957-7.027,12.7c0.093,5.598,2.868,9.455,7.681,11.142
			c6.339,2.204,12.984,3.83,19.617,4.908c8.677,1.422,17.215,3.155,25.218,6.81c9.928,4.526,17.47,11.554,19.161,22.76
			c2.222,14.708-2.198,27.177-14.529,36.232c-6.964,5.103-15.014,7.626-23.38,8.567c-13.554,1.536-27.05,0.841-40.04-4
			c-6.372-2.373-12.417-5.337-17.446-10.516c2.56-6.15,5.681-11.555,11.022-14.188c6.473,3.013,12.037,6.355,18.056,8.26
			c10.198,3.243,20.815,3.144,31.201,0.683c3.499-0.832,7.131-2.641,9.843-5.001c7.911-6.854,6.558-18.231-2.521-23.409
			c-5.683-3.214-12.03-4.347-18.407-5.246c-9.016-1.264-17.896-2.768-26.448-6.22c-24.918-10.031-25.601-41.271-7.662-55.038
			c7.181-5.502,15.242-8.462,23.968-9.856c13.858-2.215,27.425-0.762,40.51,4.176C413.137,93.983,417.273,96.475,421.828,98.738"/>
		<path id="t_4_" fill="#236AB7" stroke="#DFDFDF" stroke-width="0.5" stroke-miterlimit="10" d="M308.991,186.099
			c5.55,3.701,7.64,6.845,9.52,14.27c-0.431,0.533-0.862,1.354-1.535,1.849c-9.067,6.839-19.069,11.044-30.612,11.164
			c-7.943,0.087-15.632-0.68-22.968-4.083c-11.244-5.182-17.056-14.323-19.012-26.093c-0.841-5.07-0.979-10.31-1.021-15.468
			c-0.121-17.322-0.047-34.664-0.047-51.983v-6.424h-19.513c-2.26-5.802-1.931-10.989-0.328-16.631
			c6.146-1.867,12.666,0.038,19.479-1.264c0.957-10.01-0.142-20.149,0.588-29.983c5.228-2.608,14.78-2.756,20.563-0.216v30.667
			h46.47c2.435,5.958,2.062,11.291,0.264,17.197H264.59c-0.205,1.844-0.473,3.217-0.479,4.558
			c-0.027,18.048-0.164,36.099,0.082,54.144c0.063,4.941,0.904,9.951,2.09,14.76c1.446,5.8,5.521,9.467,11.324,11.037
			c9.952,2.697,19.059,0.466,27.598-4.878C306.401,187.972,307.547,187.12,308.991,186.099"/>
		<g id="i_4_">
			<path fill="#236AB7" stroke="#DFDFDF" stroke-width="0.5" stroke-miterlimit="10" d="M186.686,93.326
				c7-1.966,13.321-2.052,19.647-0.188c1.255,3.796,1.806,106.642,0.578,118.747c-6.542,2.25-13.21,1.665-20.225,0.245V93.326z"/>
			<path fill="#236AB7" stroke="#DFDFDF" stroke-width="0.5" stroke-miterlimit="10" d="M196.946,44.27
				c8.253,0.025,14.534,6.31,14.545,14.551c0.02,7.758-6.987,14.879-14.597,14.808c-7.597-0.053-15.263-7.257-14.841-15.132
				C182.486,50.307,188.564,44.252,196.946,44.27"/>
		</g>
		<path id="b_4_" fill="#236AB7" stroke="#DFDFDF" stroke-width="0.5" stroke-miterlimit="10" d="M77.563,187.916
			c14.155,5.935,28.396,7.411,43.02,3.322c11.233-3.132,18.776-10.419,23.125-21.253c3.499-8.749,3.499-17.783,2.97-26.907
			c-0.988-17.025-12.903-31.023-29.644-34.064c-6.075-1.099-12.48-1.382-18.619-0.826c-7.429,0.655-14.696,2.699-20.851,7.645
			V187.916z M56.751,201.521V45.234c5.21-2.826,15.002-2.984,20.631-0.255v49.52c1.643-0.522,2.792-0.716,3.812-1.216
			c8.86-4.268,18.285-6.153,28.017-5.962c11.777,0.231,22.926,3.148,33.008,9.521c13.601,8.601,21.681,21.089,24.919,36.604
			c3.048,14.635,2.044,29.158-3.677,43.101c-7.951,19.362-22.613,31.162-42.866,35.067c-21.449,4.146-42.277,0.95-61.938-8.84
			C58.026,202.461,57.483,201.998,56.751,201.521"/>
	</g>
</g>
</svg>
